<?xml version="1.0" encoding="utf-8"?>
<!-- Generator: Adobe Illustrator 18.0.0, SVG Export Plug-In . SVG Version: 6.00 Build 0)  -->
<!DOCTYPE svg PUBLIC "-//W3C//DTD SVG 1.1//EN" "http://www.w3.org/Graphics/SVG/1.1/DTD/svg11.dtd">
<svg version="1.1" xmlns="http://www.w3.org/2000/svg" xmlns:xlink="http://www.w3.org/1999/xlink" x="0px" y="0px"
	 viewBox="0 0 48 48" enable-background="new 0 0 48 48" xml:space="preserve">
<g id="Layer_1">
</g>
<g id="fahrenheit">
</g>
<g id="celsius">
</g>
<g id="snow">
</g>
<g id="umberla_1_">
</g>
<g id="umberla">
</g>
<g id="thunder-1">
</g>
<g id="mountain">
</g>
<g id="sun-nwave">
</g>
<g id="sun-wave">
</g>
<g id="direction">
</g>
<g id="direction-e">
</g>
<g id="direction-w">
</g>
<g id="direction-s">
</g>
<g id="dark-moon">
</g>
<g id="half-moon">
</g>
<g id="_x31__x2F_4-moon">
</g>
<g id="_x31__x2F_3moon">
</g>
<g id="thermometer_1_">
</g>
<g id="thermometer-3">
</g>
<g id="thermometer-2">
</g>
<g id="thermometer-1">
</g>
<g id="thermometer">
</g>
<g id="tail-star">
</g>
<g id="stars">
</g>
<g id="moon">
	<g>
		<path fill="none" stroke="#ffffff" stroke-width="2" stroke-linejoin="round" stroke-miterlimit="10" d="M21,26.5
			c-3.7-3.7-4.9-8.8-3.6-13.5c-2.3,0.6-4.5,1.8-6.3,3.6c-5.5,5.5-5.5,14.3,0,19.8s14.3,5.5,19.8,0c1.8-1.8,3-4,3.6-6.3
			C29.8,31.4,24.6,30.2,21,26.5z"/>
		<polygon fill="none" stroke="#ffffff" stroke-width="2" stroke-miterlimit="10" points="25.5,8.9 26.6,11 28.9,11.4 27.2,13.1 
			27.6,15.4 25.5,14.3 23.4,15.4 23.8,13.1 22.1,11.4 24.4,11 		"/>
		<polygon fill="none" stroke="#ffffff" stroke-width="2" stroke-miterlimit="10" points="38.5,6.8 39.3,8.3 41,8.6 39.8,9.8 
			40,11.5 38.5,10.7 37,11.5 37.3,9.8 36,8.6 37.7,8.3 		"/>
		<polygon fill="none" stroke="#ffffff" stroke-width="2" stroke-miterlimit="10" points="32.5,22.8 33.3,24.3 35,24.6 33.8,25.8 
			34,27.5 32.5,26.7 31,27.5 31.3,25.8 30,24.6 31.7,24.3 		"/>
	</g>
</g>
<g id="leef">
</g>
<g id="tree">
</g>
<g id="thunderstorms">
</g>
<g id="stoms">
</g>
<g id="wind">
</g>
<g id="drop_1_">
</g>
<g id="low-rain">
</g>
<g id="low-rain-2">
</g>
<g id="moon-slice">
</g>
<g id="moon-2">
</g>
<g id="shade">
</g>
<g id="half-light">
</g>
<g id="drop">
</g>
<g id="cloud-thunder">
</g>
<g id="night-thunder">
</g>
<g id="thunder-rain-n">
</g>
<g id="night_drizzle">
</g>
<g id="night-rain">
</g>
<g id="cloudy-night">
</g>
<g id="thunder">
</g>
<g id="drizzle">
</g>
<g id="showers">
</g>
<g id="thunder-rain">
</g>
<g id="rain_flame">
</g>
<g id="rain-2">
</g>
<g id="rain-1">
</g>
<g id="half_rain">
</g>
<g id="suny-cloudy">
</g>
<g id="sunset">
</g>
<g id="mostly_cloudy">
</g>
<g id="sunrise">
</g>
<g id="sun">
</g>
<g id="Layer_2">
</g>
<g id="full-moon">
</g>
<g id="direction-n">
</g>
<g id="snow-doll">
</g>
</svg>
