<?xml version="1.0" encoding="utf-8"?>
<!-- Generator: Adobe Illustrator 18.0.0, SVG Export Plug-In . SVG Version: 6.00 Build 0)  -->
<!DOCTYPE svg PUBLIC "-//W3C//DTD SVG 1.1//EN" "http://www.w3.org/Graphics/SVG/1.1/DTD/svg11.dtd">
<svg version="1.1" xmlns="http://www.w3.org/2000/svg" xmlns:xlink="http://www.w3.org/1999/xlink" x="0px" y="0px"
	 viewBox="0 0 48 48" enable-background="new 0 0 48 48" xml:space="preserve">
<g id="Layer_1">
</g>
<g id="fahrenheit">
</g>
<g id="celsius">
</g>
<g id="snow">
</g>
<g id="umberla_1_">
</g>
<g id="umberla">
</g>
<g id="thunder-1">
</g>
<g id="mountain">
</g>
<g id="sun-nwave">
</g>
<g id="sun-wave">
</g>
<g id="direction">
</g>
<g id="direction-e">
</g>
<g id="direction-w">
</g>
<g id="direction-s">
</g>
<g id="dark-moon">
</g>
<g id="half-moon">
</g>
<g id="_x31__x2F_4-moon">
</g>
<g id="_x31__x2F_3moon">
</g>
<g id="thermometer_1_">
</g>
<g id="thermometer-3">
</g>
<g id="thermometer-2">
</g>
<g id="thermometer-1">
</g>
<g id="thermometer">
</g>
<g id="tail-star">
</g>
<g id="stars">
</g>
<g id="moon">
</g>
<g id="leef">
</g>
<g id="tree">
</g>
<g id="thunderstorms">
</g>
<g id="stoms">
</g>
<g id="wind">
</g>
<g id="drop_1_">
</g>
<g id="low-rain">
</g>
<g id="low-rain-2">
</g>
<g id="moon-slice">
</g>
<g id="moon-2">
</g>
<g id="shade">
</g>
<g id="half-light">
</g>
<g id="drop">
</g>
<g id="cloud-thunder">
</g>
<g id="night-thunder">
</g>
<g id="thunder-rain-n">
</g>
<g id="night_drizzle">
</g>
<g id="night-rain">
</g>
<g id="cloudy-night">
</g>
<g id="thunder">
</g>
<g id="drizzle">
</g>
<g id="showers">
</g>
<g id="thunder-rain">
</g>
<g id="rain_flame">
</g>
<g id="rain-2">
</g>
<g id="rain-1">
</g>
<g id="half_rain">
</g>
<g id="suny-cloudy">
</g>
<g id="sunset">
	<g>
		<path fill="none" stroke="#ffffff" stroke-width="2" stroke-linecap="round" stroke-linejoin="round" stroke-miterlimit="10" d="
			M8.8,25.4c-2.7-3.2-2.3-7.9,0.8-10.6s7.9-2.3,10.6,0.8"/>
		
			<line fill="none" stroke="#ffffff" stroke-width="2" stroke-linecap="round" stroke-linejoin="round" stroke-miterlimit="10" x1="5.1" y1="14.5" x2="2.7" y2="13.4"/>
		
			<line fill="none" stroke="#ffffff" stroke-width="2" stroke-linecap="round" stroke-linejoin="round" stroke-miterlimit="10" x1="17.3" y1="9.9" x2="18.1" y2="7.5"/>
		
			<line fill="none" stroke="#ffffff" stroke-width="2" stroke-linecap="round" stroke-linejoin="round" stroke-miterlimit="10" x1="3.8" y1="22" x2="1.3" y2="22.3"/>
		
			<line fill="none" stroke="#ffffff" stroke-width="2" stroke-linecap="round" stroke-linejoin="round" stroke-miterlimit="10" x1="10.2" y1="9.9" x2="9.2" y2="7.5"/>
		<path fill="none" stroke="#ffffff" stroke-width="2" stroke-linecap="round" stroke-linejoin="round" stroke-miterlimit="10" d="
			M41,24.7c0-0.2,0-0.5,0-0.7c0-6.6-5.4-12-12-12s-12,5.4-12,12c0,1.2,0.2,2.4,0.5,3.5C16,26,13.9,25,11.5,25C6.8,25,3,28.8,3,33.5
			c0,4.7,3.8,8.5,8.5,8.5s19.9,0,24,0c5.2,0,9.5-4.3,9.5-9.5C45,29.3,43.4,26.5,41,24.7z"/>
	</g>
</g>
<g id="mostly_cloudy">
</g>
<g id="sunrise">
</g>
<g id="sun">
</g>
<g id="Layer_2">
</g>
<g id="full-moon">
</g>
<g id="direction-n">
</g>
<g id="snow-doll">
</g>
</svg>
